# xmcd
#
# Track frame offsets:
# 150
# 9918
# 31676
# 45619
# 62352
# 78374
# 97045
# 112998
# 130350
# 145982
# 160977
# 176854
#
# Disc length: 2623 seconds
#
#
# Revision: 0
# Processed by: cddbd v1.5PL3 Copyright (c) Steve Scherf et al.
# Submitted via: FreeRIP 2.53 
#
DISCID=940a3d0c
DTITLE=Wariner, Steve - Burnin' The Roadhouse Down
DYEAR=1900
DGENRE=
TTITLE0=Burnin' The Roadhouse Down
TTITLE1=Holes In The Floor of Heaven
TTITLE2=Every Little Whisper
TTITLE3=A Six Pack To Go
TTITLE4=Road Trippin'
TTITLE5=Love Me Like You Love Me
TTITLE6=Smoke From An Old Flame
TTITLE7=I Don't Know How To Fix It
TTITLE8=Big Ol' Empty House
TTITLE9=Closer I Get To You
TTITLE10=Big Tops
TTITLE11=What If I Said
EXTD=
EXTT0=
EXTT1=
EXTT2=
EXTT3=
EXTT4=
EXTT5=
EXTT6=
EXTT7=
EXTT8=
EXTT9=
EXTT10=
EXTT11=
PLAYORDER=
